{
	"asset":{
		"generator":"Khronos glTF Blender I/O v4.2.60",
		"version":"2.0"
	},
	"scene":0,
	"scenes":[
		{
			"name":"Scene",
			"nodes":[
				1,
				2
			]
		}
	],
	"nodes":[
		{
			"mesh":0,
			"name":"Icing"
		},
		{
			"children":[
				0
			],
			"mesh":1,
			"name":"Donut"
		},
		{
			"mesh":2,
			"name":"Sprinkle",
			"translation":[
				-0.44614145159721375,
				0,
				0
			]
		}
	],
	"materials":[
		{
			"doubleSided":true,
			"name":"Icing",
			"pbrMetallicRoughness":{
				"baseColorFactor":[
					1,
					0.02196536399424076,
					0.2961913049221039,
					1
				],
				"metallicFactor":0,
				"roughnessFactor":0.5
			}
		},
		{
			"doubleSided":true,
			"name":"Material.002",
			"pbrMetallicRoughness":{
				"baseColorFactor":[
					0.5988525748252869,
					0.40616244077682495,
					0.19689953327178955,
					1
				],
				"metallicFactor":0
			}
		},
		{
			"doubleSided":true,
			"name":"Sprinkles"
		}
	],
	"meshes":[
		{
			"name":"Torus.001",
			"primitives":[
				{
					"attributes":{
						"POSITION":0,
						"NORMAL":1,
						"TEXCOORD_0":2
					},
					"indices":3,
					"material":0
				}
			]
		},
		{
			"name":"Torus",
			"primitives":[
				{
					"attributes":{
						"POSITION":4,
						"NORMAL":5,
						"TEXCOORD_0":6
					},
					"indices":7,
					"material":1
				}
			]
		},
		{
			"name":"Sphere",
			"primitives":[
				{
					"attributes":{
						"POSITION":8,
						"NORMAL":9,
						"TEXCOORD_0":10
					},
					"indices":11,
					"material":2
				}
			]
		}
	],
	"accessors":[
		{
			"bufferView":0,
			"componentType":5126,
			"count":108688,
			"max":[
				0.6751305460929871,
				0.27023980021476746,
				0.7040367126464844
			],
			"min":[
				-0.6763018369674683,
				-0.24296636879444122,
				-0.7102014422416687
			],
			"type":"VEC3"
		},
		{
			"bufferView":1,
			"componentType":5126,
			"count":108688,
			"type":"VEC3"
		},
		{
			"bufferView":2,
			"componentType":5126,
			"count":108688,
			"type":"VEC2"
		},
		{
			"bufferView":3,
			"componentType":5125,
			"count":650880,
			"type":"SCALAR"
		},
		{
			"bufferView":4,
			"componentType":5126,
			"count":1625,
			"max":[
				0.6542233228683472,
				0.2580029368400574,
				0.6754013299942017
			],
			"min":[
				-0.646571934223175,
				-0.24259871244430542,
				-0.657678484916687
			],
			"type":"VEC3"
		},
		{
			"bufferView":5,
			"componentType":5126,
			"count":1625,
			"type":"VEC3"
		},
		{
			"bufferView":6,
			"componentType":5126,
			"count":1625,
			"type":"VEC2"
		},
		{
			"bufferView":7,
			"componentType":5123,
			"count":9216,
			"type":"SCALAR"
		},
		{
			"bufferView":8,
			"componentType":5126,
			"count":115,
			"max":[
				0.016954464837908745,
				0.016954464837908745,
				0.016954464837908745
			],
			"min":[
				-0.016954464837908745,
				-0.016954464837908745,
				-0.016954464837908745
			],
			"type":"VEC3"
		},
		{
			"bufferView":9,
			"componentType":5126,
			"count":115,
			"type":"VEC3"
		},
		{
			"bufferView":10,
			"componentType":5126,
			"count":115,
			"type":"VEC2"
		},
		{
			"bufferView":11,
			"componentType":5123,
			"count":504,
			"type":"SCALAR"
		}
	],
	"bufferViews":[
		{
			"buffer":0,
			"byteLength":1304256,
			"byteOffset":0,
			"target":34962
		},
		{
			"buffer":0,
			"byteLength":1304256,
			"byteOffset":1304256,
			"target":34962
		},
		{
			"buffer":0,
			"byteLength":869504,
			"byteOffset":2608512,
			"target":34962
		},
		{
			"buffer":0,
			"byteLength":2603520,
			"byteOffset":3478016,
			"target":34963
		},
		{
			"buffer":0,
			"byteLength":19500,
			"byteOffset":6081536,
			"target":34962
		},
		{
			"buffer":0,
			"byteLength":19500,
			"byteOffset":6101036,
			"target":34962
		},
		{
			"buffer":0,
			"byteLength":13000,
			"byteOffset":6120536,
			"target":34962
		},
		{
			"buffer":0,
			"byteLength":18432,
			"byteOffset":6133536,
			"target":34963
		},
		{
			"buffer":0,
			"byteLength":1380,
			"byteOffset":6151968,
			"target":34962
		},
		{
			"buffer":0,
			"byteLength":1380,
			"byteOffset":6153348,
			"target":34962
		},
		{
			"buffer":0,
			"byteLength":920,
			"byteOffset":6154728,
			"target":34962
		},
		{
			"buffer":0,
			"byteLength":1008,
			"byteOffset":6155648,
			"target":34963
		}
	],
	"buffers":[
		{
			"byteLength":6156656,
			"uri":"donut.bin"
		}
	]
}
