{
	"asset":{
		"generator":"Khronos glTF Blender I/O v4.2.60",
		"version":"2.0"
	},
	"scene":0,
	"scenes":[
		{
			"name":"Scene",
			"nodes":[
				0,
				1
			]
		}
	],
	"nodes":[
		{
			"mesh":0,
			"name":"jackstem",
			"translation":[
				0,
				0.5799999833106995,
				0
			]
		},
		{
			"mesh":1,
			"name":"jack"
		}
	],
	"materials":[
		{
			"doubleSided":true,
			"name":"stem.001",
			"pbrMetallicRoughness":{
				"baseColorFactor":[
					0.2889101505279541,
					0.12674139440059662,
					0.05328477919101715,
					1
				],
				"metallicFactor":0
			}
		},
		{
			"doubleSided":true,
			"name":"Material.001",
			"pbrMetallicRoughness":{
				"baseColorFactor":[
					0.8001965880393982,
					0.16075971722602844,
					0.02604844979941845,
					1
				],
				"metallicFactor":0
			}
		}
	],
	"meshes":[
		{
			"name":"Circle.001",
			"primitives":[
				{
					"attributes":{
						"POSITION":0,
						"NORMAL":1,
						"TEXCOORD_0":2
					},
					"indices":3,
					"material":0
				}
			]
		},
		{
			"name":"Sphere.004",
			"primitives":[
				{
					"attributes":{
						"POSITION":4,
						"NORMAL":5,
						"TEXCOORD_0":6
					},
					"indices":7,
					"material":1
				}
			]
		}
	],
	"accessors":[
		{
			"bufferView":0,
			"componentType":5126,
			"count":102,
			"max":[
				0.289164274930954,
				0.32106709480285645,
				0.19630718231201172
			],
			"min":[
				-0.17000700533390045,
				-0.0453113429248333,
				-0.19630718231201172
			],
			"type":"VEC3"
		},
		{
			"bufferView":1,
			"componentType":5126,
			"count":102,
			"type":"VEC3"
		},
		{
			"bufferView":2,
			"componentType":5126,
			"count":102,
			"type":"VEC2"
		},
		{
			"bufferView":3,
			"componentType":5123,
			"count":156,
			"type":"SCALAR"
		},
		{
			"bufferView":4,
			"componentType":5126,
			"count":1653,
			"max":[
				0.811794102191925,
				0.612197995185852,
				0.7544236779212952
			],
			"min":[
				-0.811794102191925,
				-0.612197995185852,
				-0.7544236779212952
			],
			"type":"VEC3"
		},
		{
			"bufferView":5,
			"componentType":5126,
			"count":1653,
			"type":"VEC3"
		},
		{
			"bufferView":6,
			"componentType":5126,
			"count":1653,
			"type":"VEC2"
		},
		{
			"bufferView":7,
			"componentType":5123,
			"count":2496,
			"type":"SCALAR"
		}
	],
	"bufferViews":[
		{
			"buffer":0,
			"byteLength":1224,
			"byteOffset":0,
			"target":34962
		},
		{
			"buffer":0,
			"byteLength":1224,
			"byteOffset":1224,
			"target":34962
		},
		{
			"buffer":0,
			"byteLength":816,
			"byteOffset":2448,
			"target":34962
		},
		{
			"buffer":0,
			"byteLength":312,
			"byteOffset":3264,
			"target":34963
		},
		{
			"buffer":0,
			"byteLength":19836,
			"byteOffset":3576,
			"target":34962
		},
		{
			"buffer":0,
			"byteLength":19836,
			"byteOffset":23412,
			"target":34962
		},
		{
			"buffer":0,
			"byteLength":13224,
			"byteOffset":43248,
			"target":34962
		},
		{
			"buffer":0,
			"byteLength":4992,
			"byteOffset":56472,
			"target":34963
		}
	],
	"buffers":[
		{
			"byteLength":61464,
			"uri":"Jackie.bin"
		}
	]
}
